<svg xmlns="http://www.w3.org/2000/svg" viewBox="0 0 426.29 57.48"><path d="M399.93 22.1c0-2.81 1.18-5.1 3.54-6.86 2.36-1.76 5.4-2.64 9.11-2.64 1.33 0 2.73.16 4.2.47 1.46.32 2.83.87 4.1 1.67 1.27.8 2.34 1.85 3.19 3.15.86 1.31 1.28 2.83 1.28 4.6h-7.45c-.08-1.22-.62-2.21-1.6-2.99-.98-.78-2.2-1.17-3.66-1.17-1.37 0-2.5.31-3.38.95-.88.63-1.31 1.44-1.31 2.45 0 .84.45 1.59 1.35 2.23.9.65 2.93 1.31 6.1 1.98 4.05.84 6.88 2.05 8.48 3.62 1.6 1.58 2.41 3.45 2.41 5.64 0 1.76-.5 3.35-1.5 4.75s-2.51 2.58-4.51 3.53c-2.01.94-4.44 1.42-7.33 1.42-4 0-7.28-.94-9.83-2.83-2.55-1.89-3.82-4.3-3.82-7.24h7.89c.04.59.25 1.22.63 1.89s1.03 1.23 1.94 1.67c.92.44 1.96.66 3.13.66 1.46 0 2.68-.35 3.66-1.04.98-.69 1.47-1.54 1.47-2.55 0-.33-.07-.67-.22-1-.15-.34-.4-.66-.78-.98-.38-.31-.81-.57-1.31-.79-.5-.21-1.01-.39-1.54-.53s-1.01-.28-1.47-.38c-.17-.04-.34-.08-.53-.12-.34-.08-.71-.16-1.13-.26-.12-.03-.23-.05-.33-.08-.46-.1-.75-.17-.89-.2-6.59-1.55-9.89-4.55-9.89-9Zm-17.33-17v8.12h-5.76v6.8h5.76v24.3h8.2v-24.3h6.89v-6.8h-6.89V5.1h-8.2Zm-30.08 8.12v18.2c0 1.47-.34 2.75-1.03 3.84-.69 1.09-1.54 1.84-2.54 2.27-1 .42-1.96.63-2.88.63-1.42 0-2.65-.36-3.69-1.07-1.04-.72-1.76-1.61-2.16-2.68-.4-1.07-.6-2.06-.6-2.99v-18.2h-8.14v18.2c0 1.93.35 3.72 1.06 5.38.71 1.66 1.72 3.1 3.04 4.31 1.31 1.22 2.88 2.15 4.7 2.8 1.82.65 3.77.98 5.85.98 4.26 0 7.74-1.26 10.46-3.78 2.71-2.52 4.07-5.75 4.07-9.69v-18.2h-8.14Zm-50.48 8.88c0-2.81 1.18-5.1 3.54-6.86 2.36-1.76 5.4-2.64 9.11-2.64 1.33 0 2.73.16 4.19.47 1.46.32 2.83.87 4.1 1.67 1.27.8 2.34 1.85 3.19 3.15.85 1.31 1.28 2.83 1.28 4.6H320c-.08-1.22-.61-2.21-1.6-2.99-.98-.78-2.2-1.17-3.66-1.17-1.38 0-2.5.31-3.38.95-.88.63-1.31 1.44-1.31 2.45 0 .84.45 1.59 1.35 2.23.89.65 2.93 1.31 6.1 1.98 4.05.84 6.88 2.05 8.49 3.62 1.6 1.58 2.41 3.45 2.41 5.64 0 1.76-.5 3.35-1.5 4.75s-2.51 2.58-4.51 3.53c-2 .94-4.44 1.42-7.33 1.42-4.01 0-7.28-.94-9.83-2.83-2.55-1.89-3.82-4.3-3.82-7.24h7.89c.04.59.25 1.22.63 1.89.38.67 1.02 1.23 1.94 1.67s1.96.66 3.13.66c1.46 0 2.68-.35 3.66-1.04.98-.69 1.47-1.54 1.47-2.55 0-.33-.07-.67-.22-1-.15-.34-.41-.66-.79-.98-.38-.31-.81-.57-1.31-.79-.5-.21-1.01-.39-1.54-.53s-1.01-.28-1.47-.38c-.19-.04-.4-.09-.63-.14-.31-.07-.65-.15-1.03-.24l-.17-.04c-.55-.12-.9-.2-1.05-.24-6.59-1.55-9.89-4.55-9.89-9Zm-24.84-1.23c1.5-1.07 3.19-1.6 5.07-1.6s3.73.54 5.32 1.63c1.59 1.09 2.69 2.48 3.32 4.16h-16.97a9.088 9.088 0 0 1 3.25-4.19Zm-.47-7.49c-1.9.52-3.77 1.53-5.63 3.02-1.86 1.49-3.26 3.36-4.2 5.6-.94 2.25-1.41 4.5-1.41 6.77s.42 4.4 1.25 6.39c.83 1.99 2 3.71 3.5 5.17 1.5 1.44 3.29 2.57 5.35 3.36 2.07.8 4.27 1.2 6.61 1.2 1.84 0 3.64-.28 5.41-.85s3.38-1.37 4.82-2.42c1.44-1.05 2.67-2.3 3.7-3.75 1.02-1.45 1.74-2.99 2.16-4.63h-8.2c-.58 1.42-1.6 2.61-3.04 3.55-1.44.95-3.04 1.42-4.79 1.42-1 0-2.1-.21-3.29-.63-1.19-.42-2.29-1.21-3.29-2.36-1-1.16-1.69-2.47-2.06-3.93h24.98c.17-.67.25-1.49.25-2.45 0-2.31-.42-4.46-1.25-6.45-.84-1.99-2-3.72-3.51-5.19-1.5-1.47-3.28-2.6-5.32-3.4-2.05-.8-4.24-1.2-6.57-1.2-1.75 0-3.58.26-5.48.79Zm-39.88-5.07h10.64c1.96 0 3.55.6 4.76 1.79 1.21 1.2 1.82 2.76 1.82 4.69 0 1.43-.34 2.68-1.03 3.75-.69 1.07-1.56 1.81-2.6 2.2-1.04.4-2.02.6-2.94.6h-10.64V8.31Zm-8.7-7.68v43.69h8.7V28.39H248c1.29 0 2.42.4 3.38 1.2.96.8 1.62 1.79 1.97 2.99.35 1.2.55 2.34.6 3.43.08 4.11.27 6.89.56 8.31h9.08c-.42-1.26-.71-4.41-.88-9.44-.13-2.73-.8-4.98-2.03-6.74-1.23-1.76-2.89-3-4.98-3.71 2.25-.92 4.02-2.37 5.29-4.34 1.27-1.97 1.91-4.26 1.91-6.86 0-1.89-.34-3.62-1-5.19a10.77 10.77 0 0 0-2.91-4c-1.27-1.09-2.81-1.93-4.6-2.51-1.79-.59-3.78-.89-5.95-.89h-20.29Zm145.47 43.68h-8.38V.6h8.38v43.71ZM186.8 32.34l-9.89 11.98h10.39l9.89-11.98H186.8z" style="fill:#156aff;fill-rule:evenodd"/><path d="M222.57.63h-10.45l-12.47 15.13L187.16.63h-10.45l35.28 43.69h10.44l-17.59-21.76L222.57.63zM73.43 14.01c1.9.94 3.47 2.23 4.73 3.87v-4.66h8.2v29.02c0 2.14-.4 4.16-1.19 6.04-.79 1.89-1.92 3.52-3.38 4.88-1.46 1.37-3.18 2.42-5.17 3.18-1.98.75-4.1 1.13-6.35 1.13-2.42 0-4.71-.44-6.86-1.32-2.15-.88-4.04-2.19-5.67-3.93-1.39-1.49-2.33-3.26-2.87-5.28h7.84c.21.37.47.76.79 1.16.63.8 1.54 1.47 2.73 2.01 1.19.55 2.43.82 3.72.82 1.08 0 2.28-.26 3.57-.79 1.3-.53 2.39-1.46 3.29-2.8.9-1.34 1.35-2.88 1.35-4.6v-4.91a12.716 12.716 0 0 1-4.73 3.9c-1.9.93-3.95 1.39-6.17 1.39-.96 0-2.03-.13-3.22-.38-1.19-.25-2.39-.71-3.6-1.39-1.21-.67-2.37-1.61-3.48-2.83-1.1-1.22-2.01-2.77-2.72-4.66-.71-1.89-1.07-3.9-1.07-6.04 0-1.6.23-3.25.69-4.97.46-1.72 1.33-3.43 2.63-5.13 1.3-1.7 2.92-2.98 4.89-3.84 1.96-.86 3.92-1.29 5.88-1.29 2.21 0 4.27.47 6.17 1.42Zm-3.54 22.82c2.46 0 4.46-.86 5.98-2.58 1.52-1.72 2.28-3.84 2.28-6.36 0-1.34-.25-2.63-.75-3.87-.5-1.24-1.19-2.26-2.07-3.05-.87-.8-1.78-1.34-2.72-1.64-.94-.3-1.85-.44-2.72-.44-2.46 0-4.47.87-6.01 2.61-1.54 1.74-2.32 3.87-2.32 6.39s.79 4.69 2.38 6.39c1.59 1.7 3.57 2.55 5.95 2.55Zm92.9 7.49h8.14V.63h-8.14v43.69ZM144.82 14.1c1.9 1.01 3.47 2.37 4.73 4.09v-4.97h8.2v31.1h-8.2v-5.04a13.017 13.017 0 0 1-4.73 4.12c-1.9.99-3.96 1.48-6.17 1.48-1.96 0-3.82-.4-5.57-1.2-1.75-.8-3.27-1.92-4.54-3.36-1.27-1.45-2.25-3.17-2.94-5.16-.69-1.99-1.03-4.12-1.03-6.39s.4-4.52 1.19-6.77c.79-2.25 1.97-4.11 3.54-5.6 1.56-1.49 3.15-2.5 4.76-3.02 1.61-.53 3.14-.79 4.6-.79 2.21 0 4.27.5 6.17 1.51Zm1.91 21.59c.88-.8 1.56-1.82 2.07-3.05.5-1.24.75-2.53.75-3.87 0-2.52-.76-4.66-2.28-6.42-1.52-1.76-3.52-2.64-5.98-2.64s-4.47.88-6.01 2.64c-1.54 1.76-2.32 3.9-2.32 6.42s.77 4.65 2.32 6.39c1.54 1.74 3.55 2.61 6.01 2.61.87 0 1.78-.15 2.72-.44.94-.29 1.85-.84 2.72-1.64ZM117.4 5.1h-8.2v8.12h-5.76v6.8h5.76v24.3h8.2v-24.3h6.89v-6.8h-6.89V5.1ZM91.6 1.29C92.54.43 93.72 0 95.14 0s2.66.43 3.6 1.29c.94.86 1.41 1.96 1.41 3.3s-.47 2.38-1.41 3.24c-.94.86-2.14 1.29-3.6 1.29s-2.6-.43-3.54-1.29c-.94-.86-1.41-1.94-1.41-3.24s.47-2.45 1.41-3.3Zm-.53 43.03h8.2v-31.1h-8.2v31.1Zm-49.51 0h8.2v-31.1h-8.2v31.1ZM31.31 6.77c-2-1.95-4.39-3.47-7.17-4.53C21.36 1.17 18.39.63 15.22.63H0v43.69h15.21c3.17 0 6.15-.54 8.92-1.61 2.78-1.07 5.17-2.59 7.17-4.56 2-1.97 3.55-4.32 4.63-7.02 1.08-2.71 1.63-5.61 1.63-8.72s-.54-6-1.63-8.69c-1.08-2.69-2.63-5.01-4.63-6.96Zm-3.76 21.59c-.75 1.99-1.88 3.63-3.38 4.91-1.5 1.28-3.02 2.15-4.57 2.61-1.54.46-3.04.69-4.51.69H8.7V8.31h6.39c1.96 0 3.88.39 5.76 1.16 1.88.78 3.43 1.94 4.66 3.49 1.23 1.55 2.07 3.14 2.51 4.75.44 1.62.66 3.16.66 4.63 0 2.02-.37 4.02-1.13 6.01ZM42.09 1.29C43.03.43 44.21 0 45.63 0s2.66.43 3.6 1.29c.94.86 1.41 1.96 1.41 3.3s-.47 2.38-1.41 3.24c-.94.86-2.14 1.29-3.6 1.29s-2.6-.43-3.54-1.29c-.94-.86-1.41-1.94-1.41-3.24s.47-2.45 1.41-3.3Z" style="fill:#000a27;fill-rule:evenodd"/></svg>